#!OML:ASF F:\VICON\USERDATA\INSTALL\Justin_Nancy\Justin_Nancy.ASF
:FULLY-SPECIFIED
:DEGREES
135
root 7.96168 17.3476 22.1819 -0.721348 46.1498 -3.18336
lowerback 12.1161 1.15943 0.531007
upperback 0.259396 1.8497 3.00965
thorax -6.61874 0.950969 2.54966
lowerneck -20.6617 -6.5304 -11.04
upperneck 15.1336 -7.58754 9.6346
head 8.9372 -3.21687 4.04147
rclavicle -1.5704e-014 1.66979e-014
rhumerus -44.553 10.9711 -92.2107
rradius 119.351
rwrist -29.4995
rhand -1.44908 21.5867
rfingers 7.12502
rthumb 24.2017 -6.9062
lclavicle -1.5704e-014 1.66979e-014
lhumerus -53.7688 -16.1584 96.448
lradius 120.634
lwrist 34.418
lhand -11.1672 12.3282
lfingers 7.12502
lthumb 14.8595 41.7753
rfemur -3.33822 -7.68806 19.8545
rtibia 76.9473
rfoot 10.1442 -4.30238
rtoes -9.40497
lfemur -22.1889 -3.42973 -24.7905
ltibia 37.7612
lfoot -9.94319 -5.61892
ltoes 3.41853
136
root 8.16562 17.2446 22.4844 -0.280703 45.9889 -2.18807
lowerback 12.4033 1.09865 -0.496321
upperback 0.461749 1.6177 2.92907
thorax -6.58101 0.866611 3.08556
lowerneck -21.0173 -6.36183 -10.9665
upperneck 15.2236 -7.3431 9.62563
head 8.99893 -3.08916 4.06058
rclavicle 2.93207e-014 -3.65764e-014
rhumerus -44.977 10.1882 -92.0352
rradius 118.974
rwrist -29.8907
rhand -0.276297 20.9523
rfingers 7.12502
rthumb 25.3257 -7.38623
lclavicle 2.93207e-014 -3.65764e-014
lhumerus -52.1156 -16.1196 96.1937
lradius 120.734
lwrist 34.4726
lhand -10.5984 12.0157
lfingers 7.12502
lthumb 15.4073 41.4216
rfemur -5.00577 -8.56477 18.3574
rtibia 79.8714
rfoot 9.5238 -4.01352
rtoes -8.86663
lfemur -21.0379 -3.52289 -25.5195
ltibia 39.0797
lfoot -12.0736 -4.46175
ltoes 4.20927
137
root 8.36382 17.1434 22.7775 0.725637 46.0329 -0.656471
lowerback 12.5647 1.0411 -1.76562
upperback 0.58678 1.33837 2.67221
thorax -6.54465 0.761777 3.58418
lowerneck -21.173 -6.22055 -10.8616
upperneck 15.1492 -7.16864 9.67562
head 8.97907 -2.99203 4.08545
rclavicle 1.05157e-013 0
rhumerus -45.4181 9.49877 -91.9477
rradius 118.368
rwrist -29.6635
rhand -0.272257 20.7664
rfingers 7.12502
rthumb 25.3296 -7.57159
lclavicle 1.05157e-013 0
lhumerus -50.0972 -16.2221 95.9753
lradius 120.443
lwrist 34.2874
lhand -10.1658 11.772
lfingers 7.12502
lthumb 15.824 41.1453
rfemur -6.94831 -9.46244 16.5345
rtibia 82.6965
rfoot 8.8103 -3.73653
rtoes -8.33872
lfemur -19.9069 -3.3734 -26.7062
ltibia 40.0984
lfoot -14.0732 -3.42187
ltoes 4.66122
138
root 8.55148 17.0412 23.0765 2.32178 45.7779 1.66471
lowerback 12.7529 1.16659 -3.5818
upperback 0.674698 1.20266 2.1834
thorax -6.57374 0.739844 4.12275
lowerneck -21.2752 -6.17649 -10.5188
upperneck 15.1177 -7.16204 9.49389
head 8.96415 -2.98481 3.96499
rclavicle -3.13086e-014 -1.43125e-014
rhumerus -46.021 8.8274 -91.9592
rradius 117.746
rwrist -28.7553
rhand -1.61111 21.1307
rfingers 7.12502
rthumb 24.0463 -7.3828
lclavicle -3.13086e-014 -1.43125e-014
lhumerus -48.1938 -16.668 95.6954
lradius 120.292
lwrist 34.2901
lhand -9.93072 11.9314
lfingers 7.12502
lthumb 16.0504 41.2866
rfemur -9.12998 -10.188 14.107
rtibia 85.4193
rfoot 8.11165 -3.23743
rtoes -7.34097
lfemur -18.7549 -3.29838 -28.4435
ltibia 40.789
lfoot -15.664 -1.76712
ltoes 4.81872
139
root 8.73868 16.9512 23.3859 3.82378 45.4807 3.83281
lowerback 12.7841 1.23955 -5.31961
upperback 0.795774 1.01515 1.71895
thorax -6.46666 0.686435 4.65291
lowerneck -21.4622 -6.12375 -10.3572
upperneck 15.1149 -7.12064 9.49712
head 8.98511 -2.95023 3.94406
rclavicle 6.62947e-014 -4.77083e-015
rhumerus -46.8315 7.96635 -92.1563
rradius 117.287
rwrist -27.5899
rhand -2.54018 22.1441
rfingers 7.12502
rthumb 23.1552 -6.48421
lclavicle 6.62947e-014 -4.77083e-015
lhumerus -46.5002 -17.0061 95.3587
lradius 120.311
lwrist 34.5691
lhand -10.7415 12.1497
lfingers 7.12502
lthumb 15.2695 41.5661
rfemur -11.265 -10.9945 11.8776
rtibia 87.8323
rfoot 7.33012 -2.51909
rtoes -7.6267
lfemur -17.4268 -3.24876 -29.9847
ltibia 41.2023
lfoot -17.2453 -0.763908
ltoes 3.79405
140
root 8.91997 16.8849 23.6973 4.4934 45.433 4.73071
lowerback 12.8436 1.17884 -6.21146
upperback 0.824876 0.790486 1.53806
thorax -6.4522 0.598495 5.01008
lowerneck -21.5994 -6.06589 -10.497
upperneck 15.1263 -7.05625 9.83864
head 9.02631 -2.88812 4.09614
rclavicle -5.00937e-014 3.97569e-015
rhumerus -47.5728 7.23935 -92.1665
rradius 117.172
rwrist -26.554
rhand -2.31225 21.661
rfingers 7.12502
rthumb 23.3739 -6.93973
lclavicle -5.00937e-014 3.97569e-015
lhumerus -45.0177 -17.1842 95.0179
lradius 120.343
lwrist 34.6314
lhand -10.7071 12.1189
lfingers 7.12502
lthumb 15.3027 41.5327
rfemur -13.4197 -11.8222 10.991
rtibia 89.82
rfoot 6.48686 -2.26314
rtoes -7.22684
lfemur -16.1272 -3.15854 -30.423
ltibia 41.5051
lfoot -18.8295 -0.48045
ltoes 3.4473
141
root 9.1042 16.8258 23.9882 4.88797 45.3273 4.97545
lowerback 12.7529 1.09749 -6.54283
upperback 0.822953 0.637257 1.49241
thorax -6.38646 0.53004 5.17869
lowerneck -21.7616 -6.04565 -10.5849
upperneck 15.122 -7.03416 10.0763
head 9.06439 -2.85299 4.19649
rclavicle 1.78906e-014 -7.95139e-016
rhumerus -47.9971 7.05868 -92.0248
rradius 116.793
rwrist -26.1884
rhand -2.378 21.6861
rfingers 7.12502
rthumb 23.3108 -6.92259
lclavicle 1.78906e-014 -7.95139e-016
lhumerus -43.4613 -17.344 94.7092
lradius 120.353
lwrist 34.2637
lhand -10.3771 11.6715
lfingers 7.12502
lthumb 15.6205 41.0608
rfemur -16.0354 -12.3971 10.8299
rtibia 91.5062
rfoot 5.75648 -2.04251
rtoes -7.54674
lfemur -15.1399 -2.94173 -30.4058
ltibia 41.6807
lfoot -20.0627 0.0337134
ltoes 2.50415
142
root 9.31003 16.7566 24.2327 5.60231 45.3648 5.36295
lowerback 12.6135 0.814399 -6.31183
upperback 0.702248 0.287153 1.30921
thorax -6.38587 0.351629 4.91359
lowerneck -21.6783 -5.85493 -10.2126
upperneck 14.8503 -6.81347 9.78084
head 8.90566 -2.76311 4.06245
rclavicle -3.58806e-014 -2.38542e-015
rhumerus -48.5692 7.20909 -92.0124
rradius 116.639
rwrist -26.2972
rhand -2.42272 21.791
rfingers 7.12502
rthumb 23.2679 -6.82315
lclavicle -3.58806e-014 -2.38542e-015
lhumerus -41.9549 -17.3069 94.5385
lradius 120.249
lwrist 33.99
lhand -10.8694 11.6019
lfingers 7.12502
lthumb 15.1463 41.0276
rfemur -19.1338 -13.2877 10.3249
rtibia 93.0383
rfoot 5.12068 -1.47499
rtoes -7.83887
lfemur -14.4806 -3.35601 -30.7297
ltibia 41.8252
lfoot -20.9955 0.889327
ltoes 1.2141
143
root 9.49955 16.7196 24.5274 6.00778 45.4124 5.74115
lowerback 12.6078 0.597413 -6.63272
upperback 0.628176 -0.0567483 1.19381
thorax -6.41661 0.193781 5.03521
lowerneck -21.2461 -5.50406 -9.32284
upperneck 14.3983 -6.46981 9.08541
head 8.58169 -2.63765 3.72457
rclavicle -5.09883e-014 3.73715e-014
rhumerus -49.347 7.24242 -92.2775
rradius 116.729
rwrist -26.4815
rhand -2.09089 21.7389
rfingers 7.12502
rthumb 23.5862 -6.83459
lclavicle -5.09883e-014 3.73715e-014
lhumerus -40.8035 -17.2034 94.2796
lradius 120.296
lwrist 33.8785
lhand -11.6669 12.0778
lfingers 7.12502
lthumb 14.378 41.5598
rfemur -21.5289 -14.0087 10.27
rtibia 93.96
rfoot 4.17247 -1.44981
rtoes -9.27538
lfemur -13.2602 -3.51694 -30.8032
ltibia 41.8321
lfoot -21.8744 1.24862
ltoes 0.454311
144
root 9.69452 16.7011 24.8232 6.2179 45.388 5.78102
lowerback 12.5406 0.34529 -6.6912
upperback 0.542706 -0.401325 1.1514
thorax -6.42322 0.0283926 5.0843
lowerneck -20.9685 -5.23588 -8.77314
upperneck 14.1325 -6.19964 8.71786
head 8.38571 -2.52619 3.54735
rclavicle -3.51849e-014 1.98785e-015
rhumerus -50.2036 7.27611 -92.5499
rradius 116.949
rwrist -26.4397
rhand -1.22621 21.5961
rfingers 7.12502
rthumb 24.4154 -6.86825
lclavicle -3.51849e-014 1.98785e-015
lhumerus -40.0407 -17.035 93.9184
lradius 120.692
lwrist 33.7804
lhand -11.9507 12.2961
lfingers 7.12502
lthumb 14.1045 41.7974
rfemur -23.7948 -14.5234 10.6605
rtibia 94.317
rfoot 3.33917 -1.3921
rtoes -11.8454
lfemur -12.0006 -3.58036 -30.6366
ltibia 41.7043
lfoot -22.3364 1.66853
ltoes -0.711045
145
root 9.8966 16.6937 25.1085 6.26182 45.4462 5.73498
lowerback 12.6862 0.0409182 -6.41748
upperback 0.445803 -0.785148 1.06917
thorax -6.55992 -0.161465 4.91186
lowerneck -21.1035 -5.13726 -8.67836
upperneck 14.3827 -6.09999 8.72685
head 8.48139 -2.468 3.55049
rclavicle -4.1546e-014 6.75868e-015
rhumerus -51.0128 7.33392 -92.7775
rradius 117.283
rwrist -26.5092
rhand -0.346485 21.3863
rfingers 7.12502
rthumb 25.2585 -6.96175
lclavicle -4.1546e-014 6.75868e-015
lhumerus -39.2902 -16.8469 93.6615
lradius 121.06
lwrist 33.8883
lhand -11.7424 12.0668
lfingers 7.12502
lthumb 14.3052 41.5541
rfemur -25.7406 -14.9533 11.0534
rtibia 94.2104
rfoot 2.57094 -1.30071
rtoes -12.4618
lfemur -10.5311 -3.65708 -30.4104
ltibia 41.3924
lfoot -22.7029 1.09245
ltoes 1.54939
146
root 10.1076 16.7092 25.4 6.43991 45.5816 5.82861
lowerback 12.7302 -0.309852 -6.27158
upperback 0.349566 -1.23723 1.05358
thorax -6.63093 -0.382462 4.89471
lowerneck -21.2661 -5.01899 -8.61699
upperneck 14.5923 -5.93103 8.59832
head 8.55762 -2.39336 3.52109
rclavicle 2.127e-014 2.0276e-014
rhumerus -51.9372 7.6589 -93.0776
rradius 117.731
rwrist -27.1462
rhand -0.074594 21.3531
rfingers 7.12502
rthumb 25.5189 -6.95794
lclavicle 2.127e-014 2.0276e-014
lhumerus -38.0965 -16.3605 93.6121
lradius 121.108
lwrist 34.157
lhand -11.3861 11.8782
lfingers 7.12502
lthumb 14.6485 41.3408
rfemur -27.605 -15.4093 11.3015
rtibia 93.737
rfoot 1.35258 -1.48188
rtoes -11.5166
lfemur -9.06461 -3.90636 -30.3352
ltibia 40.9988
lfoot -22.819 0.676061
ltoes 2.40256
147
root 10.316 16.7342 25.6962 7.27043 45.4981 6.63239
lowerback 12.587 -0.540871 -6.7746
upperback 0.21442 -1.62088 0.939332
thorax -6.63618 -0.552667 5.12396
lowerneck -21.3677 -4.93077 -8.58407
upperneck 14.7383 -5.78871 8.43787
head 8.60447 -2.33849 3.48135
rclavicle -4.65156e-014 6.36111e-015
rhumerus -52.8991 8.06733 -93.5014
rradius 118.077
rwrist -27.8039
rhand -0.313129 21.7185
rfingers 7.12502
rthumb 25.2904 -6.62497
lclavicle -4.65156e-014 6.36111e-015
lhumerus -37.1443 -16.0148 93.5912
lradius 121.378
lwrist 34.5176
lhand -11.7538 11.5981
lfingers 7.12502
lthumb 14.2942 41.086
rfemur -29.8564 -15.9636 10.9588
rtibia 93.136
rfoot -0.15426 -1.1237
rtoes -13.6407
lfemur -7.83136 -4.17089 -30.8518
ltibia 40.6252
lfoot -22.2233 1.05743
ltoes -1.70783
